<svg id="Layer_2" data-name="Layer 2" xmlns="http://www.w3.org/2000/svg" viewBox="0 0 298.4 94.43"><defs><style>.cls-1{fill:#fbb040;}.cls-2{fill:#fff;}</style></defs><title>logosiktec</title><path class="cls-1" d="M45,90.33,70.38,61.76a1,1,0,0,0,0-1.3L45,31.21a2,2,0,0,1-.5-1.29l-.05-5.13a6.33,6.33,0,0,0,1.71-5.92,6.26,6.26,0,0,0-4.79-4.74,6.31,6.31,0,0,0-5.72,10.75v7A5.5,5.5,0,0,0,37,35.5l21.82,25a1,1,0,0,1,0,1.3L41.45,81.49a1.17,1.17,0,0,1-1.64.11L26.49,69.87a1.09,1.09,0,0,1-.37-.82V62.91a6.31,6.31,0,1,0-9,0V73.17a1,1,0,0,0,.34.75l17.36,15.3A2.38,2.38,0,0,1,35.61,91v6.5a6.3,6.3,0,1,0,10.62,4.59,6.24,6.24,0,0,0-1.79-4.39l0-6A2,2,0,0,1,45,90.33Z" transform="translate(-15.3 -13.98)"/><path class="cls-2" d="M21.33,40,35.08,55.84a2,2,0,0,1,.37.61,2.28,2.28,0,0,1,.13.69l.05,5.13a6.33,6.33,0,1,0,8.8-.1v-7c0-1.94.34-1.66-1.35-3.6q-7.57-8.7-15.2-17.38c0-.15,0-.29,0-.44A6.31,6.31,0,1,0,21.33,40Z" transform="translate(-15.3 -13.98)"/><path class="cls-2" d="M79.58,74.78l7.24-1.51a.44.44,0,0,1,.51.32Q89,79.95,98.45,80c3,0,5.25-.57,6.85-1.73a5.16,5.16,0,0,0,2.4-4.3,6,6,0,0,0-1.09-3.46Q105.51,68.88,102,68l-8.87-2.27a22.09,22.09,0,0,1-6.73-2.65,10.53,10.53,0,0,1-3.49-4.19,13.07,13.07,0,0,1-1.3-5.77,11.9,11.9,0,0,1,4.62-9.79Q90.8,39.64,98,39.63A21.87,21.87,0,0,1,108.7,42.2,11.66,11.66,0,0,1,114.56,49a.44.44,0,0,1-.32.56l-7.13,1.73a.43.43,0,0,1-.5-.27q-1.94-4.8-8.43-4.81a9.61,9.61,0,0,0-6,1.6,5,5,0,0,0-2,4.07c0,2.6,2.15,4.43,6.45,5.47l7.89,1.94c4.78,1.18,8,2.91,9.62,5.22a12.89,12.89,0,0,1,2.45,7.62,12.48,12.48,0,0,1-5.15,10.56q-5.16,3.84-13.34,3.85A24.83,24.83,0,0,1,86,83.72a13.8,13.8,0,0,1-6.74-8.37A.45.45,0,0,1,79.58,74.78Z" transform="translate(-15.3 -13.98)"/><path class="cls-2" d="M136.26,85.86h-7.49a.44.44,0,0,1-.44-.44V40.77a.44.44,0,0,1,.44-.44h7.49a.44.44,0,0,1,.44.44V85.42A.44.44,0,0,1,136.26,85.86Z" transform="translate(-15.3 -13.98)"/><path class="cls-2" d="M187.3,85.86h-8.4a.45.45,0,0,1-.4-.27l-9.38-22.22a.45.45,0,0,0-.76-.1l-8.42,11a.44.44,0,0,0-.09.27V85.42a.44.44,0,0,1-.44.44h-7.48a.44.44,0,0,1-.44-.44V40.77a.43.43,0,0,1,.44-.44h7.48a.44.44,0,0,1,.44.44v22a.44.44,0,0,0,.81.24c.65-1,1.16-1.7,1.5-2.16L177.43,40.5a.43.43,0,0,1,.35-.17h7.38a.44.44,0,0,1,.35.7L175.16,55.1a.44.44,0,0,0,0,.43L187.7,85.25A.44.44,0,0,1,187.3,85.86Z" transform="translate(-15.3 -13.98)"/><path class="cls-2" d="M215.64,85.86h-8.1a.44.44,0,0,1-.44-.44V47.8a.43.43,0,0,0-.44-.43H195.2a.44.44,0,0,1-.44-.44V40.77a.44.44,0,0,1,.44-.44H228a.44.44,0,0,1,.44.44v6.16a.44.44,0,0,1-.44.44H216.52a.43.43,0,0,0-.44.43V85.42A.44.44,0,0,1,215.64,85.86Z" transform="translate(-15.3 -13.98)"/><path class="cls-2" d="M267.82,85.86H238.55a.44.44,0,0,1-.44-.44V40.77a.44.44,0,0,1,.44-.44h29a.43.43,0,0,1,.44.44v5.89a.44.44,0,0,1-.44.44h-20.6a.44.44,0,0,0-.44.44V59a.44.44,0,0,0,.44.44H263.3a.44.44,0,0,1,.44.44V65.6a.44.44,0,0,1-.44.44H246.91a.44.44,0,0,0-.44.44V78.35a.44.44,0,0,0,.44.44h20.91a.44.44,0,0,1,.44.44v6.19A.44.44,0,0,1,267.82,85.86Z" transform="translate(-15.3 -13.98)"/><path class="cls-2" d="M306.43,70.09l6.87.74a.46.46,0,0,1,.39.5,17.54,17.54,0,0,1-5.33,10.81q-4.64,4.42-12.19,4.42-6.36,0-10.31-3.14a20,20,0,0,1-6.11-8.5,31.86,31.86,0,0,1-2.14-11.84q0-10.41,5-16.93t13.84-6.52A16.44,16.44,0,0,1,308,43.8q4.44,4,5.7,11.47a.46.46,0,0,1-.39.52l-6.9.71a.44.44,0,0,1-.47-.35q-2.19-9.91-9.36-9.92a8.13,8.13,0,0,0-7.3,4.29q-2.6,4.29-2.59,12.42,0,8.28,2.78,12.49a8.48,8.48,0,0,0,7.38,4.22,8.13,8.13,0,0,0,6.25-2.83A11.14,11.14,0,0,0,306,70.48.44.44,0,0,1,306.43,70.09Z" transform="translate(-15.3 -13.98)"/></svg>